<?xml version="1.0" encoding="iso-8859-1"?>
<!-- Generator: Adobe Illustrator 19.0.0, SVG Export Plug-In . SVG Version: 6.00 Build 0)  -->
<svg xmlns="http://www.w3.org/2000/svg" xmlns:xlink="http://www.w3.org/1999/xlink" version="1.1" id="Capa_1" x="0px" y="0px" viewBox="0 0 511.999 511.999" style="enable-background:new 0 0 511.999 511.999;" xml:space="preserve" width="36px" height="36px">
<g>
	<g>
		<path d="M255.509,320.752c-19.361,0-35.112,15.752-35.112,35.113v0.027v45.102c0,19.361,15.751,35.112,35.112,35.112    c19.361,0,35.113-15.751,35.113-35.112v-45.102v-0.027C290.623,336.504,274.871,320.752,255.509,320.752z M255.509,335.753    c8.82,0,16.314,5.713,19.02,13.628c-14.212,2.539-16.285,7.181-24.067,4.025c-4.514-1.831-9.19-3.173-13.97-4.026    C239.198,341.466,246.691,335.753,255.509,335.753z M275.623,400.994L275.623,400.994c-0.001,11.09-9.023,20.111-20.113,20.111    c-11.09,0-20.111-9.022-20.111-20.111v-36.555c3.218,0.671,6.368,1.629,9.427,2.868c6.895,2.795,14.486,2.794,21.377-0.001    c3.055-1.238,6.204-2.195,9.421-2.866V400.994z" fill="#ff7f00"/>
	</g>
</g>
<g>
	<g>
		<path d="M352.77,199.208c-13.529-17.035-38.263-19.873-55.3-6.343c-16.995,13.498-19.84,38.305-6.343,55.3l10.321,12.994    c21.72,27.349,65.93,14.858,69.925-19.992C373.935,218.838,357.97,207.483,352.77,199.208z M329.493,260.882    c-14.633-1.68-18.693-13.668-26.62-22.045c-13.471-16.963,0.415-41.811,21.85-39.35c14.633,1.678,18.693,13.668,26.62,22.045    C364.908,238.608,350.825,263.332,329.493,260.882z" fill="#ff7f00"/>
	</g>
</g>
<g>
	<g>
		<path d="M213.55,192.864c-16.996-13.498-41.805-10.652-55.3,6.343c-5.348,8.511-21.17,19.577-18.603,41.958    c4.009,34.942,48.293,47.231,69.925,19.993l10.321-12.995C233.39,231.17,230.545,206.362,213.55,192.864z M208.147,238.835    l-10.321,12.995c-8.359,10.523-23.658,12.318-34.225,3.926c-10.542-8.374-12.298-23.681-3.925-34.225l10.321-12.995    c8.354-10.517,23.706-12.277,34.225-3.925C214.739,212.965,216.499,228.318,208.147,238.835z" fill="#ff7f00"/>
	</g>
</g>
<g>
	<g>
		<path d="M282.933,261.417c-8.797-25.511-44.021-26.331-54.233-1.618c-4.225,10.226-1.933,21.272,5.839,28.145l11.224,9.922    c5.566,4.918,13.963,4.918,19.528-0.001l11.107-9.819C283.828,281.477,286.332,271.273,282.933,261.417z M266.461,276.806    l-10.937,9.668l-11.051-9.77c-6.835-6.042-0.604-19.98,11.003-19.98c6.332,0,11.437,4.253,13.274,9.583    C269.425,268.259,270.55,273.19,266.461,276.806z" fill="#ff7f00"/>
	</g>
</g>
<g>
	<g>
		<path d="M504.5,285.097h-29.712c0.342-15.154-2.57-29.427-8.118-42.372l18.522-6.735c3.893-1.416,5.9-5.719,4.485-9.613    c-1.416-3.894-5.715-5.901-9.613-4.485l-20.424,7.427c-4.188-6.679-9.164-12.843-14.891-18.306    c-14.957-14.269-11.438-26.888-29.081-59.169c6.192-18.083,10.807-36.747,13.682-55.547c0.626-4.095-2.186-7.922-6.28-8.549    c-4.091-0.619-7.921,2.187-8.549,6.28c-2.108,13.789-5.187,27.51-9.186,40.956c-14.329-20.967-32.368-38.675-53.047-52.197    c24.11-34.213,59.133-56.853,64.127-58.102c1.031,4.544,1.788,21.764,1.314,35.314c-0.146,4.14,3.094,7.612,7.233,7.757    c4.124,0.189,7.613-3.093,7.757-7.233c0.561-16.018-0.321-28.48-1.16-36.112c-1.531-13.911-13.284-23.754-26.258-22.863    c-8.305,0.632-62.045,17.114-100.914,59.166c-31.493-9.172-65.366-9.439-97.737-0.016C181.044,33,147.19,13.537,110.985,2.518    c-14.091-4.462-29.69,5.55-31.486,21.893c-2.05,18.657-4.501,67.974,15.909,127.512c-2.413,4.409-4.688,8.916-6.785,13.533    c-1.712,3.771-0.043,8.217,3.729,9.931c3.776,1.714,8.219,0.042,9.931-3.729c2.486-5.475,5.227-10.793,8.19-15.947    C186.153,24.143,370.595,46.927,416.864,192.7c7.663,24.139,18.267,27.183,28.283,41.89l-42.087,15.304    c-7.852,2.856-5.792,14.552,2.564,14.552c2.417,0,0.2,0.234,46.866-16.564c5.111,11.668,7.553,24.45,7.22,37.215h-45.087    c-4.143,0-7.5,3.357-7.5,7.5s3.357,7.5,7.5,7.5h43.397c-3.958,19.632-12.913,30.278-14.846,33.827l-34.987-12.723    c-3.896-1.413-8.195,0.595-9.613,4.485c-1.415,3.894,0.593,8.197,4.485,9.613l12.184,4.43c-2.225,1.503-7.244,5.571-9.308,7.291    c-29.759,24.79-50.569,55.684-61.888,91.517c-7.211,4.825-14.616,9.358-22.048,13.493c-41.625,23.161-91.331,23.157-132.964-0.012    c-7.446-4.144-14.861-8.684-22.074-13.513c-11.904-37.691-34.165-69.617-66.169-94.975c-1.887-1.493-3.408-2.681-4.685-3.566    l12.834-4.667c3.893-1.416,5.9-5.719,4.485-9.613c-1.416-3.893-5.717-5.903-9.613-4.485l-35.776,13.01    c-2.69-4.888-11.125-14.775-15.076-34.114h44.415c4.143,0,7.5-3.357,7.5-7.5s-3.357-7.5-7.5-7.5h-46.14    c-0.354-12.869,2.135-25.759,7.39-37.536l45.186,16.431c3.902,1.418,8.199-0.602,9.613-4.485c1.415-3.894-0.593-8.196-4.485-9.613    l-42.864-15.587c8.18-11.839,13.427-13.033,22.484-29.791c1.97-3.644,0.612-8.195-3.031-10.165    c-3.646-1.972-8.195-0.612-10.165,3.031c-8.448,15.632-14.095,16.33-23.77,31.658l-19.659-7.148    c-3.895-1.414-8.196,0.595-9.613,4.485c-1.415,3.894,0.593,8.196,4.485,9.613l17.704,6.438    c-5.804,13.439-8.564,28.064-8.229,42.669H7.5c-4.143,0-7.5,3.357-7.5,7.5s3.357,7.5,7.5,7.5h30.231    c2.386,13.876,7.677,27.342,15.935,39.34l-26.858,9.767c-3.893,1.416-5.9,5.719-4.485,9.613c1.417,3.894,5.72,5.9,9.613,4.485    l20.451-7.437c-2.027,7.187-1.081,15.055,3.115,22.132c26.76,45.123,25.456,78.008,24.755,95.675    c-0.803,20.243,15.103,36.874,35.407,36.874h31.393c17.145,0,30.311-14.981,28.375-31.922c-0.734-6.422-1.746-12.722-3.003-18.908    c25.528,15.34,50.991,24.7,83.102,24.698c31.97-0.001,57.409-9.273,83.052-24.672c-1.254,6.177-2.265,12.469-2.998,18.882    c-1.942,16.996,11.291,31.922,28.375,31.922h31.393c9.791,0,18.878-3.845,25.589-10.827c12.123-12.615,9.608-26.047,9.592-36.124    c-0.012-7.24-8.188-7.79-7.512-7.488c-4.143,0.007-7.495,3.37-7.488,7.512c0.005,3.272,0.081,6.655,0.238,10.648    c0.467,11.771-8.685,21.278-20.417,21.278H363.96c-8.059,0-14.408-7.017-13.472-15.218c6.184-54.135,33.019-98.677,72.604-127.776    c11.767-8.644,27.058,5.083,19.519,17.795c-11.465,19.332-19.066,37.856-23.242,56.629c-0.899,4.043,1.649,8.05,5.693,8.95    c4.042,0.9,8.05-1.65,8.95-5.693c3.825-17.2,10.859-34.287,21.502-52.234c4.274-7.208,5.176-15.239,2.998-22.532l21.55,7.836    c3.902,1.418,8.2-0.602,9.613-4.485c1.415-3.894-0.593-8.196-4.485-9.613l-27.617-10.043    c8.009-11.724,13.367-25.054,15.782-39.064h31.143c4.143,0,7.5-3.357,7.5-7.5S508.642,285.097,504.5,285.097z M105.735,135.046    C90.482,83.848,92.61,42.434,94.41,26.049c0.051-0.464,0.133-0.917,0.234-1.362c5.256,1.314,39.961,23.814,64.124,58.097    C137.243,96.856,119.455,114.96,105.735,135.046z M171.687,75.078c-11.307-16.235-29.273-36.898-56.168-55.314    c30.033,10.481,55.657,26.756,75.444,46.308C184.358,68.689,177.926,71.701,171.687,75.078z M320.091,66.076    c21.173-20.923,47.806-36.672,75.449-46.312c-26.9,18.417-44.865,39.081-56.172,55.318    C333.128,71.705,326.696,68.693,320.091,66.076z M147.059,495.547h-31.393c-11.756,0-20.884-9.532-20.418-21.279    c1.132-28.558-1.337-60.912-26.842-103.92c-7.515-12.67,7.255-25.398,18.437-18.527c1.983,1.234,7.837,6.042,9.627,7.554    c37.061,31.226,58.537,72.611,64.061,120.954C161.464,488.515,155.136,495.547,147.059,495.547z" fill="#ff7f00"/>
	</g>
</g>
<g>
</g>
<g>
</g>
<g>
</g>
<g>
</g>
<g>
</g>
<g>
</g>
<g>
</g>
<g>
</g>
<g>
</g>
<g>
</g>
<g>
</g>
<g>
</g>
<g>
</g>
<g>
</g>
<g>
</g>
</svg>
